# File created by Blade
# Date/Time:  Tue Apr 07 20:13:55 2015
# Frame Rate: 120.000 fps
#------------------------------------------------------
:FULLY-SPECIFIED
:DEGREES
1624
root 1.947182 32.944255 -8.087484 16.881149 5.525268 1.784123
Spine -5.123872 -1.503788 -3.717936
Head 30.532070 -7.206492 1.963048
LeftShoulder -20.875647 48.889648 3.093306
LeftArm 55.007965 18.249447 -71.267215
LeftForeArm -14.824185 0.000000 40.606007
LeftHand 5.731027 -0.000000 9.259812
LeftHandThumb1 -26.253704 0.000000 33.147579
RightShoulder -4.766744 -8.533282 -20.239218
RightArm 15.946594 -16.224678 86.123140
RightForeArm 12.524400 -0.000000 19.784875
RightHand 4.985204 -0.000000 2.462420
RightHandThumb1 -24.326973 -0.000000 -32.862282
LeftUpLeg -14.840310 -8.441917 -3.623462
LeftLeg 4.010904 -0.000000 -0.000000
LeftFoot -6.928258 18.882211 -12.183187
LeftToeBase -14.625879 -0.000000 0.000000
RightUpLeg -23.142683 -2.030259 -0.252648
RightLeg 11.318503 -0.000000 -0.000000
RightFoot -8.124866 -5.649104 5.425979
RightToeBase 9.695048 -0.000000 -0.000000
1625
root 1.941923 32.935032 -8.144448 17.016069 5.392822 1.780414
Spine -5.093861 -1.755646 -3.692323
Head 30.382975 -6.831318 1.937834
LeftShoulder -20.431043 48.892840 3.468816
LeftArm 55.177237 18.433302 -71.077296
LeftForeArm -14.540415 -0.000000 39.700630
LeftHand 5.918649 -0.000000 9.728961
LeftHandThumb1 -26.253704 0.000000 33.147579
RightShoulder -4.608790 -8.310827 -20.265693
RightArm 16.149309 -15.996334 86.424691
RightForeArm 12.818433 -0.000000 19.452757
RightHand 5.202388 -0.000000 2.781926
RightHandThumb1 -24.326973 -0.000000 -32.862282
LeftUpLeg -15.011083 -8.064834 -3.803944
LeftLeg 3.863097 -0.000000 -0.000000
LeftFoot -6.902631 19.184464 -11.832532
LeftToeBase -14.238093 -0.000000 0.000000
RightUpLeg -23.312025 -2.050982 -0.233112
RightLeg 11.167224 -0.000000 -0.000000
RightFoot -8.148796 -5.554919 5.359400
RightToeBase 10.016504 -0.000000 -0.000000
1626
root 1.937605 32.924425 -8.200680 17.125635 5.344920 1.766285
Spine -5.043749 -2.125356 -3.638314
Head 30.236703 -6.435058 1.971153
LeftShoulder -19.905395 48.847822 4.050618
LeftArm 55.235171 18.512445 -71.541473
LeftForeArm -13.871885 -0.000000 38.460651
LeftHand 6.288930 0.000000 9.655281
LeftHandThumb1 -26.253704 0.000000 33.147579
RightShoulder -4.442448 -8.082138 -20.294979
RightArm 16.317705 -15.870832 86.673247
RightForeArm 12.886228 -0.000000 19.264959
RightHand 4.897048 0.000000 2.503255
RightHandThumb1 -24.326973 -0.000000 -32.862282
LeftUpLeg -15.158375 -7.813427 -3.921328
LeftLeg 3.721604 -0.000000 -0.000000
LeftFoot -6.907091 19.414053 -11.537782
LeftToeBase -13.828360 -0.000000 0.000000
RightUpLeg -23.437950 -2.059426 -0.202219
RightLeg 10.999209 -0.000000 -0.000000
RightFoot -8.199676 -5.563934 5.295200
RightToeBase 10.394989 -0.000000 -0.000000
1627
root 1.932213 32.911620 -8.254865 17.215482 5.327323 1.774816
Spine -4.977921 -2.501434 -3.616126
Head 30.070840 -6.079711 2.020018
LeftShoulder -19.521480 48.780933 4.499429
LeftArm 55.478547 18.747360 -71.430277
LeftForeArm -13.546761 -0.000000 37.291971
LeftHand 6.868016 0.000000 9.819553
LeftHandThumb1 -26.253704 0.000000 33.147579
RightShoulder -4.332129 -7.942800 -20.293564
RightArm 16.549505 -15.802960 86.870692
RightForeArm 13.179336 -0.000000 19.157951
RightHand 4.918857 -0.000000 2.297403
RightHandThumb1 -24.326973 -0.000000 -32.862282
LeftUpLeg -15.289350 -7.579300 -4.027790
LeftLeg 3.612845 -0.000000 -0.000000
LeftFoot -6.917064 19.493325 -11.296539
LeftToeBase -13.540773 -0.000000 0.000000
RightUpLeg -23.557548 -2.010374 -0.208264
RightLeg 10.883345 -0.000000 -0.000000
RightFoot -8.311340 -5.684344 5.221481
RightToeBase 10.748385 -0.000000 -0.000000
1628
root 1.927787 32.896844 -8.307263 17.262472 5.363920 1.777776
Spine -4.871249 -2.904262 -3.562773
Head 29.899409 -5.844612 2.029569
LeftShoulder -19.065768 48.712201 4.944310
LeftArm 55.650388 18.925594 -71.254956
LeftForeArm -13.246085 -0.000000 36.374446
LeftHand 7.107894 0.000000 9.916185
LeftHandThumb1 -26.253704 0.000000 33.147579
RightShoulder -4.233456 -7.803849 -20.311331
RightArm 16.725513 -15.780734 87.048860
RightForeArm 13.275664 -0.000000 19.161662
RightHand 4.837760 -0.000000 2.684093
RightHandThumb1 -24.326973 -0.000000 -32.862282
LeftUpLeg -15.386491 -7.456237 -4.071317
LeftLeg 3.532646 -0.000000 -0.000000
LeftFoot -6.961943 19.483763 -11.184541
LeftToeBase -13.338133 -0.000000 0.000000
RightUpLeg -23.644950 -1.964291 -0.203030
RightLeg 10.806508 -0.000000 -0.000000
RightFoot -8.463989 -5.885150 5.077645
RightToeBase 11.140839 -0.000000 -0.000000
1629
root 1.923659 32.881105 -8.359938 17.305809 5.441856 1.789150
Spine -4.762265 -3.364137 -3.508578
Head 29.712943 -5.601905 2.046775
LeftShoulder -18.808372 48.721755 5.218286
LeftArm 56.035833 19.140852 -70.822783
LeftForeArm -13.083470 -0.000000 35.440099
LeftHand 7.485178 -0.000000 10.011878
LeftHandThumb1 -26.253704 0.000000 33.147579
RightShoulder -4.162813 -7.735909 -20.301664
RightArm 16.999667 -15.775903 87.196490
RightForeArm 13.596109 -0.000000 19.176593
RightHand 5.132743 0.000000 3.049771
RightHandThumb1 -24.326973 -0.000000 -32.862282
LeftUpLeg -15.486488 -7.412151 -4.070523
LeftLeg 3.478781 -0.000000 -0.000000
LeftFoot -7.077060 19.376624 -11.269482
LeftToeBase -13.114419 -0.000000 0.000000
RightUpLeg -23.740525 -1.857668 -0.224558
RightLeg 10.766742 -0.000000 -0.000000
RightFoot -8.649753 -6.197866 4.935490
RightToeBase 11.495293 -0.000000 -0.000000
1630
root 1.909326 32.862742 -8.409491 17.318503 5.574944 1.717940
Spine -4.642401 -3.857581 -3.378045
Head 29.518514 -5.317656 2.080199
LeftShoulder -18.550924 48.622085 5.504002
LeftArm 56.302075 19.394094 -70.312727
LeftForeArm -12.973543 -0.000000 34.642213
LeftHand 7.814458 -0.000000 10.195039
LeftHandThumb1 -26.253704 0.000000 33.147579
RightShoulder -4.067625 -7.600570 -20.278512
RightArm 17.145208 -15.732592 87.355986
RightForeArm 13.537907 -0.000000 19.295748
RightHand 4.923133 -0.000000 2.735272
RightHandThumb1 -24.326973 -0.000000 -32.862282
LeftUpLeg -15.789344 -6.536347 -4.167538
LeftLeg 3.948656 -0.000000 -0.000000
LeftFoot -7.278577 18.398253 -11.129600
LeftToeBase -13.166944 -0.000000 0.000000
RightUpLeg -23.821894 -1.738023 -0.139721
RightLeg 10.769721 -0.000000 -0.000000
RightFoot -8.824651 -6.541486 4.779056
RightToeBase 11.680839 -0.000000 -0.000000
1631
root 1.907019 32.847780 -8.462760 17.364960 5.647139 1.758377
Spine -4.557754 -4.303302 -3.373241
Head 29.342907 -5.065860 2.111128
LeftShoulder -18.272531 48.500788 5.777185
LeftArm 56.565026 19.630697 -69.809404
LeftForeArm -12.748144 -0.000000 33.843952
LeftHand 8.290978 0.000000 10.544760
LeftHandThumb1 -26.253704 0.000000 33.147579
RightShoulder -3.985470 -7.495313 -20.228602
RightArm 17.267483 -15.682341 87.494759
RightForeArm 13.462654 -0.000000 19.520360
RightHand 5.112289 -0.000000 2.539223
RightHandThumb1 -24.326973 -0.000000 -32.862282
LeftUpLeg -15.817206 -6.786894 -4.090042
LeftLeg 3.742118 -0.000000 -0.000000
LeftFoot -7.421984 18.402103 -11.503732
LeftToeBase -12.858904 -0.000000 0.000000
RightUpLeg -23.987744 -1.649334 -0.193278
RightLeg 10.881961 -0.000000 -0.000000
RightFoot -9.001859 -6.792481 4.651794
RightToeBase 11.692593 -0.000000 -0.000000
1632
root 1.905616 32.832603 -8.509612 17.379696 5.748760 1.760834
Spine -4.465251 -4.707823 -3.314045
Head 29.178265 -4.879992 2.103120
LeftShoulder -18.136624 48.569150 5.854657
LeftArm 57.101284 19.768785 -69.147943
LeftForeArm -12.333918 0.000000 33.048445
LeftHand 8.742176 0.000000 10.769626
LeftHandThumb1 -26.253704 0.000000 33.147579
RightShoulder -3.948199 -7.396120 -20.162180
RightArm 17.303667 -15.527779 87.651855
RightForeArm 13.166524 -0.000000 19.808445
RightHand 4.934926 -0.000000 3.000236
RightHandThumb1 -24.326973 -0.000000 -32.862282
LeftUpLeg -15.845286 -6.866369 -4.013794
LeftLeg 3.626069 -0.000000 -0.000000
LeftFoot -7.511670 18.177053 -11.723289
LeftToeBase -12.814628 -0.000000 0.000000
RightUpLeg -24.122472 -1.532384 -0.228393
RightLeg 11.020751 -0.000000 -0.000000
RightFoot -9.210288 -7.022576 4.618874
RightToeBase 11.801484 -0.000000 -0.000000
1633
root 1.907466 32.818134 -8.552611 17.359212 5.846789 1.755952
Spine -4.347854 -5.074574 -3.256377
Head 29.016441 -4.710970 2.130328
LeftShoulder -17.963850 48.526190 5.961274
LeftArm 57.545125 19.936450 -68.537579
LeftForeArm -11.809226 -0.000000 32.263794
LeftHand 9.156050 -0.000000 11.267309
LeftHandThumb1 -26.253704 0.000000 33.147579
RightShoulder -3.941308 -7.284047 -20.067724
RightArm 17.282847 -15.347912 87.792681
RightForeArm 12.948188 -0.000000 20.163769
RightHand 4.874029 -0.000000 2.999702
RightHandThumb1 -24.326973 -0.000000 -32.862282
LeftUpLeg -15.835501 -6.854784 -3.964133
LeftLeg 3.522819 -0.000000 -0.000000
LeftFoot -7.596303 17.866083 -11.898314
LeftToeBase -12.658580 -0.000000 0.000000
RightUpLeg -24.237748 -1.415046 -0.274000
RightLeg 11.204087 -0.000000 -0.000000
RightFoot -9.402064 -7.200353 4.601279
RightToeBase 11.796997 -0.000000 -0.000000
1634
root 1.910822 32.805540 -8.593688 17.307882 5.891473 1.739938
Spine -4.219419 -5.371280 -3.191314
Head 28.883354 -4.565461 2.099448
LeftShoulder -17.780637 48.481872 6.012658
LeftArm 57.900313 20.000292 -68.028285
LeftForeArm -11.027563 -0.000000 31.564093
LeftHand 9.721092 0.000000 11.897447
LeftHandThumb1 -26.253704 0.000000 33.147579
RightShoulder -3.946048 -7.247441 -19.953132
RightArm 17.289500 -15.134795 87.889749
RightForeArm 12.691679 -0.000000 20.586638
RightHand 5.032105 0.000000 2.877795
RightHandThumb1 -24.326973 -0.000000 -32.862282
LeftUpLeg -15.805512 -6.752461 -3.939446
LeftLeg 3.443527 -0.000000 -0.000000
LeftFoot -7.673734 17.541242 -12.076038
LeftToeBase -12.643607 -0.000000 0.000000
RightUpLeg -24.349200 -1.220970 -0.343879
RightLeg 11.437645 -0.000000 -0.000000
RightFoot -9.593647 -7.356931 4.695576
RightToeBase 11.793599 -0.000000 -0.000000
